# xmcd CD database file
#
# Track frame offsets:
#	150
#	12622
#	35762
#	58675
#	85655
#	99317
#	115277
#	133487
#	164912
#	173782
#	191280
#	209987
#	223130
#	248802
#	259105
#	283245
#	295475
#
# Disc length: 4203 seconds
#
# Revision: 0
# Processed by: cddbd v1.4PL0 Copyright (c) Steve Scherf et al.
# Submitted via: CDex 1.50
#
DISCID=1a106911
DTITLE=Various Blues Artists - The London Blues Festival - Vol 2
DYEAR=1972
DGENRE=Blues
TTITLE0=Howlin' Wolf - Highway 49
TTITLE1=Bo Diddley - Get out of my life
TTITLE2=Muddy Waters - Who's gonna be your sweet man when I'm gone
TTITLE3=Chuck Berry - London Berry blues
TTITLE4=Howlin' Wolf - Who's been talking
TTITLE5=Bo Diddley - Husband-in-law
TTITLE6=Muddy Waters - I don't know why
TTITLE7=Chuck Berry - Reeling and rocking
TTITLE8=Howlin' Wolf - The red rooster
TTITLE9=Howlin' Wolf - The red rooster
TTITLE10=Muddy Waters - I'm ready
TTITLE11=Chuck Berry - Johny be good
TTITLE12=Bo Diddley - Do the robot
TTITLE13=Howlin' Wolf - Do the do
TTITLE14=Muddy Waters - Sad sad day
TTITLE15=Bo Diddley - Sneakers on a rooster
TTITLE16=Howlin' Wolf - Wang-dong-doodle
EXTD=YEAR: 1972
EXTT0=
EXTT1=
EXTT2=
EXTT3=
EXTT4=
EXTT5=
EXTT6=
EXTT7=
EXTT8=
EXTT9=
EXTT10=
EXTT11=
EXTT12=
EXTT13=
EXTT14=
EXTT15=
EXTT16=
PLAYORDER=
